<svg width="20" height="20" viewBox="0 0 20 20" fill="none" xmlns="http://www.w3.org/2000/svg">
<path d="M11 3C10.4477 3 10 3.44772 10 4C10 4.55228 10.4477 5 11 5H16C16.5523 5 17 4.55228 17 4C17 3.44772 16.5523 3 16 3H11ZM16 12C16.5523 12 17 11.5523 17 11C17 10.4477 16.5523 10 16 10H5C3.89543 10 3 10.8954 3 12V13.5V15C3 16.1046 3.89543 17 5 17H16C16.5523 17 17 16.5523 17 16C17 15.4477 16.5523 15 16 15H5V14.5H16C16.5523 14.5 17 14.0523 17 13.5C17 12.9477 16.5523 12.5 16 12.5H5V12H16ZM16 8.5C16.5523 8.5 17 8.05229 17 7.5C17 6.94772 16.5523 6.5 16 6.5H11C10.4477 6.5 10 6.94772 10 7.5C10 8.05229 10.4477 8.5 11 8.5H16ZM7 6C7 6.17477 6.90255 6.43324 6.66789 6.66789C6.43324 6.90255 6.17477 7 6 7C5.82523 7 5.56676 6.90255 5.33211 6.66789C5.09745 6.43324 5 6.17477 5 6C5 5.82523 5.09745 5.56676 5.33211 5.33211C5.56676 5.09745 5.82523 5 6 5C6.17477 5 6.43324 5.09745 6.66789 5.33211C6.90255 5.56676 7 5.82523 7 6ZM6 9C6.82523 9 7.56676 8.59745 8.08211 8.08211C8.59745 7.56676 9 6.82523 9 6C9 5.17477 8.59745 4.43324 8.08211 3.91789C7.56676 3.40255 6.82523 3 6 3C5.17477 3 4.43324 3.40255 3.91789 3.91789C3.40255 4.43324 3 5.17477 3 6C3 6.82523 3.40255 7.56676 3.91789 8.08211C4.43324 8.59745 5.17477 9 6 9ZM1 1H19V19H1V1Z" stroke="#D7C2AD" stroke-width="2" stroke-linecap="round"/>
</svg>
