<svg width="32" height="32" viewBox="0 0 32 32" fill="none" xmlns="http://www.w3.org/2000/svg">
<path d="M17.75 12.5333C17.4144 12.3799 17.5487 11.8749 17.9162 11.9085L18.7353 11.9834C18.8519 11.9941 18.9684 11.9606 19.0616 11.8896L19.509 11.5487C19.8187 11.3128 20.2394 11.6434 20.0833 12L20.0432 12.0916C19.7447 12.7741 18.9448 13.0795 18.2674 12.7698L17.75 12.5333Z" fill="#0E1B21"/>
<path d="M25.5556 10C25.0338 10 24.7483 9.48844 24.8898 9.07107C24.9341 8.94054 25.0202 8.81921 25.1539 8.72564L25.5051 8.47975C25.5387 8.45624 25.574 8.43524 25.6106 8.41691L26.6367 7.90387C27.239 7.60275 27.9683 7.90485 28.1812 8.54364C28.42 9.26011 27.8868 10 27.1315 10H26.6095H25.5556Z" fill="#0E1B21"/>
<path d="M24.3333 8.33333C24.2998 8.83685 23.6348 8.99306 23.3806 8.55717L22.4124 6.89751C22.1676 6.47783 22.227 5.94727 22.5585 5.59208C23.2647 4.83543 24.53 5.38348 24.4611 6.41619L24.3333 8.33333Z" fill="#0E1B21"/>
<path fill-rule="evenodd" clip-rule="evenodd" d="M7.80619 15.5155L9.6351 20.0877C9.85209 20.6302 10.397 20.9682 10.9794 20.9216L16.0267 20.5179L25.4397 19.7648C26.1326 19.7094 26.6667 19.1309 26.6667 18.4357V14.2757V10.3877C26.6667 10.2527 26.6467 10.1226 26.6095 10H25.5556C25.0338 10 24.7483 9.48844 24.8898 9.07107L18.5942 9.3229C18.4219 9.32979 18.2526 9.37002 18.0957 9.44135L8.49242 13.8065C7.84381 14.1013 7.54159 14.854 7.80619 15.5155ZM17.75 12.5333L18.2674 12.7698C18.9448 13.0795 19.7447 12.7741 20.0432 12.0916L20.0833 12C20.2394 11.6434 19.8187 11.3128 19.509 11.5487L19.0616 11.8896C18.9684 11.9606 18.8519 11.9941 18.7353 11.9834L17.9162 11.9085C17.5487 11.8749 17.4144 12.3799 17.75 12.5333Z" fill="url(#paint0_linear_98_641)"/>
<path d="M16 32C23.4927 32 29.7825 26.8497 31.5223 19.8961L27.2221 14.6745C27.0716 14.4917 26.8791 14.3565 26.6667 14.2757V18.4357C26.6667 19.1309 26.1326 19.7094 25.4397 19.7648L16.0267 20.5179C15.9849 20.5926 15.9502 20.6713 15.9234 20.7529L12.6398 30.7351C12.5385 31.0429 12.5549 31.3674 12.6709 31.6532C12.7057 31.6605 12.7406 31.6678 12.7754 31.6749C13.817 31.8881 14.8954 32 16 32Z" fill="#0E1B21"/>
<path d="M16 32C23.4927 32 29.7825 26.8497 31.5223 19.8961L27.2221 14.6745C27.0716 14.4917 26.8791 14.3565 26.6667 14.2757V18.4357C26.6667 19.1309 26.1326 19.7094 25.4397 19.7648L16.0267 20.5179C15.9849 20.5926 15.9502 20.6713 15.9234 20.7529L12.6398 30.7351C12.5385 31.0429 12.5549 31.3674 12.6709 31.6532C12.7057 31.6605 12.7406 31.6678 12.7754 31.6749C13.817 31.8881 14.8954 32 16 32Z" fill="url(#paint1_linear_98_641)"/>
<path fill-rule="evenodd" clip-rule="evenodd" d="M31.5903 19.6134C31.8583 18.4522 32 17.2426 32 16C32 7.16344 24.8366 0 16 0C7.16344 0 0 7.16344 0 16C0 23.695 5.43215 30.1212 12.6709 31.6532C12.5549 31.3674 12.5385 31.0429 12.6398 30.7351L15.9234 20.7529C15.9502 20.6713 15.9849 20.5926 16.0267 20.5179L10.9794 20.9216C10.397 20.9682 9.85209 20.6302 9.6351 20.0877L7.80619 15.5155C7.54159 14.854 7.84381 14.1013 8.49242 13.8065L18.0957 9.44135C18.2526 9.37002 18.4219 9.32979 18.5942 9.3229L24.8898 9.07107C24.9341 8.94054 25.0202 8.81921 25.1539 8.72564L25.5051 8.47975C25.5387 8.45624 25.574 8.43524 25.6106 8.41691L26.6367 7.90387C27.239 7.60275 27.9683 7.90485 28.1812 8.54364C28.42 9.26011 27.8868 10 27.1315 10H26.6095C26.6467 10.1226 26.6667 10.2527 26.6667 10.3877V14.2757C26.8791 14.3565 27.0716 14.4917 27.2221 14.6745L31.5223 19.8961C31.5458 19.8022 31.5685 19.708 31.5903 19.6134ZM24.4611 6.41619C24.53 5.38348 23.2647 4.83543 22.5585 5.59208C22.227 5.94727 22.1676 6.47783 22.4124 6.89751L23.3806 8.55717C23.6348 8.99306 24.2998 8.83685 24.3333 8.33333L24.4611 6.41619Z" fill="#0E1B21"/>
<path fill-rule="evenodd" clip-rule="evenodd" d="M31.5903 19.6134C31.8583 18.4522 32 17.2426 32 16C32 7.16344 24.8366 0 16 0C7.16344 0 0 7.16344 0 16C0 23.695 5.43215 30.1212 12.6709 31.6532C12.5549 31.3674 12.5385 31.0429 12.6398 30.7351L15.9234 20.7529C15.9502 20.6713 15.9849 20.5926 16.0267 20.5179L10.9794 20.9216C10.397 20.9682 9.85209 20.6302 9.6351 20.0877L7.80619 15.5155C7.54159 14.854 7.84381 14.1013 8.49242 13.8065L18.0957 9.44135C18.2526 9.37002 18.4219 9.32979 18.5942 9.3229L24.8898 9.07107C24.9341 8.94054 25.0202 8.81921 25.1539 8.72564L25.5051 8.47975C25.5387 8.45624 25.574 8.43524 25.6106 8.41691L26.6367 7.90387C27.239 7.60275 27.9683 7.90485 28.1812 8.54364C28.42 9.26011 27.8868 10 27.1315 10H26.6095C26.6467 10.1226 26.6667 10.2527 26.6667 10.3877V14.2757C26.8791 14.3565 27.0716 14.4917 27.2221 14.6745L31.5223 19.8961C31.5458 19.8022 31.5685 19.708 31.5903 19.6134ZM24.4611 6.41619C24.53 5.38348 23.2647 4.83543 22.5585 5.59208C22.227 5.94727 22.1676 6.47783 22.4124 6.89751L23.3806 8.55717C23.6348 8.99306 24.2998 8.83685 24.3333 8.33333L24.4611 6.41619Z" fill="url(#paint2_linear_98_641)"/>
<path fill-rule="evenodd" clip-rule="evenodd" d="M31.5903 19.6134C31.8583 18.4522 32 17.2426 32 16C32 7.16344 24.8366 0 16 0C7.16344 0 0 7.16344 0 16C0 23.695 5.43215 30.1212 12.6709 31.6532C12.5549 31.3674 12.5385 31.0429 12.6398 30.7351L15.9234 20.7529C15.9502 20.6713 15.9849 20.5926 16.0267 20.5179L10.9794 20.9216C10.397 20.9682 9.85209 20.6302 9.6351 20.0877L7.80619 15.5155C7.54159 14.854 7.84381 14.1013 8.49242 13.8065L18.0957 9.44135C18.2526 9.37002 18.4219 9.32979 18.5942 9.3229L24.8898 9.07107C24.9341 8.94054 25.0202 8.81921 25.1539 8.72564L25.5051 8.47975C25.5387 8.45624 25.574 8.43524 25.6106 8.41691L26.6367 7.90387C27.239 7.60275 27.9683 7.90485 28.1812 8.54364C28.42 9.26011 27.8868 10 27.1315 10H26.6095C26.6467 10.1226 26.6667 10.2527 26.6667 10.3877V14.2757C26.8791 14.3565 27.0716 14.4917 27.2221 14.6745L31.5223 19.8961C31.5458 19.8022 31.5685 19.708 31.5903 19.6134ZM24.4611 6.41619C24.53 5.38348 23.2647 4.83543 22.5585 5.59208C22.227 5.94727 22.1676 6.47783 22.4124 6.89751L23.3806 8.55717C23.6348 8.99306 24.2998 8.83685 24.3333 8.33333L24.4611 6.41619Z" fill="url(#paint3_linear_98_641)"/>
<defs>
<linearGradient id="paint0_linear_98_641" x1="-1.11628" y1="11.8652" x2="23.4419" y2="11.8652" gradientUnits="userSpaceOnUse">
<stop offset="0.278813" stop-color="#0E1B21"/>
<stop offset="0.904001" stop-color="#84472B"/>
</linearGradient>
<linearGradient id="paint1_linear_98_641" x1="13.3605" y1="18.2555" x2="22.4212" y2="32.9839" gradientUnits="userSpaceOnUse">
<stop stop-color="#0E1B21"/>
<stop offset="1" stop-color="#84472B"/>
</linearGradient>
<linearGradient id="paint2_linear_98_641" x1="16" y1="0" x2="16" y2="32" gradientUnits="userSpaceOnUse">
<stop stop-color="#ACBDB7"/>
<stop offset="1" stop-color="#917F59"/>
</linearGradient>
<linearGradient id="paint3_linear_98_641" x1="16" y1="0" x2="16" y2="32" gradientUnits="userSpaceOnUse">
<stop stop-color="#C29C6D"/>
<stop offset="1" stop-color="#84472B"/>
</linearGradient>
</defs>
</svg>
