<svg width="111" height="13" viewBox="0 0 111 13" fill="none" xmlns="http://www.w3.org/2000/svg">
<path d="M100.5 2L105.5 7M105.5 7L110.5 12M105.5 7L110.5 2M105.5 7L100.5 12M1 7.5H10M53.5 3.5H58C59.1046 3.5 60 4.39543 60 5.5V10M53.5 3.5H53C51.8954 3.5 51 4.39543 51 5.5V10.5C51 11.6046 51.8954 12.5 53 12.5H58C59.1046 12.5 60 11.6046 60 10.5V10M53.5 3.5V3C53.5 1.89543 54.3954 1 55.5 1H60.5C61.6046 1 62.5 1.89543 62.5 3V8C62.5 9.10457 61.6046 10 60.5 10H60" stroke="#D7C2AD" stroke-linecap="round"/>
</svg>
